<?xml version="1.0" encoding="UTF-8"?>
<svg xmlns="http://www.w3.org/2000/svg" width="177" height="30" viewBox="0 0 177 30" fill="none">
  <path fill-rule="evenodd" clip-rule="evenodd" d="M15.0652 0C14.4905 0 13.9158 0.0440611 13.3755 0.0881222C14.1794 0.634674 14.9373 1.24589 15.6418 1.9157L16.2165 2.45018L15.6418 3.02489C15.1348 3.49648 14.66 4.00143 14.2204 4.53638V4.58044C14.1414 4.66499 14.0672 4.75389 13.9981 4.84672C14.3526 4.81005 14.7089 4.79534 15.0652 4.80266C17.7518 4.83944 20.3159 5.9325 22.2027 7.84535C24.0896 9.7582 25.1474 12.337 25.1474 15.0239C25.1474 17.7107 24.0896 20.2895 22.2027 22.2024C20.3159 24.1152 17.7518 25.2083 15.0652 25.2451C13.1802 25.256 11.3308 24.7319 9.73187 23.7336C8.96493 23.8222 8.19357 23.867 7.42154 23.8677C7.06524 23.8753 6.70882 23.86 6.35449 23.8217C6.39564 25.0262 6.49987 26.2277 6.66675 27.4213C9.13978 29.113 12.0689 30.0123 15.0652 29.9999C17.035 29.9999 18.9855 29.6119 20.8054 28.858C22.6253 28.1042 24.2789 26.9993 25.6717 25.6065C27.0646 24.2136 28.1695 22.56 28.9233 20.7401C29.6771 18.9203 30.0651 16.9697 30.0651 14.9999C30.0651 13.0301 29.6771 11.0796 28.9233 9.2597C28.1695 7.43983 27.0646 5.78625 25.6717 4.39338C24.2789 3.0005 22.6253 1.89562 20.8054 1.1418C18.9855 0.387985 17.035 0 15.0652 0ZM6.93288 2.3996C7.95892 1.73362 9.06299 1.19638 10.2202 0.799994C9.84216 1.49263 9.50007 2.2043 9.19532 2.93217C8.45172 2.71247 7.69639 2.53467 6.93288 2.3996ZM6.08956 7.85357C6.68943 7.81353 7.25942 7.77549 7.86587 7.77549C7.23739 8.3766 6.69867 9.065 6.26626 9.81954C6.10482 9.1767 5.98579 8.52396 5.90994 7.86552L6.08956 7.85357ZM5.55555 22.9306V23.0187L5.42145 22.9785C4.278 22.8819 3.14679 22.6734 2.04407 22.3559L1.95595 22.3119L2.00001 22.2218C2.34109 21.1588 2.75655 20.1211 3.2433 19.1165L3.28928 19.0264L3.3774 19.0705C4.125 19.4973 4.89636 19.8811 5.68773 20.2199L5.77777 20.264V20.3521C5.6354 21.2043 5.56109 22.0666 5.55555 22.9306ZM5.55551 23.8172V23.7291H5.46548C4.49311 23.6278 3.52819 23.4647 2.5766 23.2406L2.31032 23.1965L2.44442 23.4187C3.3148 24.7268 4.37863 25.8953 5.59957 26.8842L5.77773 27.0624V26.7501C5.64197 25.7781 5.56775 24.7985 5.55551 23.8172ZM13.998 2.53203C13.6877 2.84429 13.3754 3.19869 13.0651 3.55501C13.0268 3.59907 12.7988 3.86535 12.5306 4.22359C11.9095 3.92841 11.2729 3.67432 10.642 3.42248L10.5325 3.37877C10.8834 2.51841 11.2991 1.68589 11.7758 0.888357C12.5449 1.39685 13.2867 1.9455 13.998 2.53203ZM2.88891 12.1322L2.93297 12.2203L3.0211 12.1763C3.72064 11.6765 4.44785 11.2167 5.19925 10.7989L5.28737 10.7548V10.6648C5.05704 9.80582 4.89371 8.93027 4.79886 8.04603V7.95599H4.71074C3.60528 8.15763 2.51946 8.45505 1.46555 8.84488L1.37743 8.88894L1.42149 8.97898C1.77306 10.0888 2.26627 11.1486 2.88891 12.1322ZM2.62255 13.6422L2.71067 13.5541L2.76431 13.6805C3.2475 14.3592 3.76676 15.0115 4.31986 15.6345L4.36392 15.6786L4.31986 15.7686C3.83222 16.4224 3.38441 17.105 2.97887 17.8127L2.93481 17.9008L2.84669 17.8567C1.97949 17.2858 1.14782 16.6627 0.356279 15.9908L0.266241 15.9008L0.356279 15.8203C1.05549 15.038 1.8131 14.3098 2.62255 13.6422ZM8.62071 23.0638H8.88699L8.66477 22.8856C7.85894 22.2353 7.16799 21.4543 6.62072 20.5753V20.5312L6.44447 20.4412V20.5753C6.33864 21.3565 6.27915 22.1433 6.26631 22.9316V23.0197H6.35443C6.53259 23.0197 6.71028 23.0307 6.88796 23.0417C7.06564 23.0528 7.24332 23.0638 7.42148 23.0638H8.62071ZM8.75477 4.26681C8.50063 4.97872 8.29267 5.70628 8.13216 6.44496C7.3602 6.44247 6.58876 6.48533 5.82183 6.57331C5.77077 5.59578 5.78549 4.61593 5.86589 3.64037C6.84234 3.78121 7.80768 3.99054 8.75477 4.26681ZM9.55359 6.39744C10.2184 5.99534 10.9178 5.65362 11.6436 5.37637C11.1261 5.11686 10.5909 4.89409 10.0421 4.70971C9.86585 5.24227 9.68769 5.82081 9.55359 6.39744ZM2.49042 18.5828H2.57662L2.53448 18.7591C2.1338 19.5692 1.77759 20.4006 1.46743 21.2495L1.37931 21.4717L1.29119 21.2495C0.676294 19.9283 0.271051 18.5193 0.0900442 17.0733L0.0459831 16.8051L0.268204 16.9832C0.979534 17.5561 1.72136 18.0901 2.49042 18.5828ZM4.48849 4.35484C3.59512 5.24507 2.81877 6.24545 2.17816 7.33184C2.9273 7.11128 3.72173 6.93601 4.51463 6.76108L4.51464 6.76108L4.53255 6.75713C4.48849 5.95445 4.48849 5.1556 4.48849 4.35484ZM4.93292 14.6201V14.8863L4.80648 14.6622C4.46939 14.2917 4.15875 13.8694 3.85366 13.4546L3.85356 13.4545C3.75643 13.3225 3.65987 13.1912 3.56319 13.0626L3.42909 12.9726L3.51913 12.9285C4.07084 12.5441 4.62254 12.2022 5.17425 11.8602L5.17427 11.8602L5.1743 11.8601L5.24326 11.8174L5.46548 11.6852L5.37736 11.9534C5.11456 12.8193 4.96517 13.7157 4.93292 14.6201ZM5.06514 16.4429L5.02108 16.1766L4.8889 16.3988C4.48852 16.9735 4.08814 17.598 3.73948 18.2206L3.6935 18.3088L3.78354 18.3528C4.38707 18.6993 5.03407 19.0023 5.68228 19.3059L5.68233 19.3059L5.73755 19.3318L5.95978 19.4199L5.87165 19.1977C5.4696 18.3238 5.19787 17.3956 5.06514 16.4429ZM2.22221 12.7905L2.13217 12.8346C1.40637 13.3765 0.750089 14.0057 0.17816 14.7081L0 14.8863V14.62C0.0336323 13.1858 0.272982 11.7639 0.710724 10.3978L0.800762 10.1315L0.888885 10.3537C1.27464 11.1594 1.70507 11.9428 2.17815 12.7005L2.22221 12.7905Z" fill="#43B049"></path>
</svg>