<svg width="230" height="40" viewBox="0 0 230 40" fill="none" xmlns="http://www.w3.org/2000/svg">
    <path fill-rule="evenodd" clip-rule="evenodd"
        d="M28.0537 22.0888L25.8211 15.0834L26.4328 14.9302L28.6655 21.9356L28.0537 22.0888Z"
        fill="url(#paint0_linear)"></path>
    <path fill-rule="evenodd" clip-rule="evenodd"
        d="M18.254 23.1579L23.2987 14.3158L23.8462 14.6291L18.8015 23.4712L18.254 23.1579Z" fill="url(#paint1_linear)">
    </path>
    <path
        d="M30.8658 21.8947C30.8658 23.29 29.7365 24.4211 28.3434 24.4211C26.9504 24.4211 25.8211 23.29 25.8211 21.8947C25.8211 20.4995 26.9504 19.3684 28.3434 19.3684C29.7365 19.3684 30.8658 20.4995 30.8658 21.8947Z"
        fill="url(#paint2_linear)"></path>
    <path
        d="M22.0375 26.9474C22.0375 29.7379 19.7789 32 16.9928 32C14.2067 32 11.9481 29.7379 11.9481 26.9474C11.9481 24.1569 14.2067 21.8947 16.9928 21.8947C19.7789 21.8947 22.0375 24.1569 22.0375 26.9474Z"
        fill="url(#paint3_linear)"></path>
    <path
        d="M28.8477 11.7895C28.8477 13.8823 27.1537 15.5789 25.0641 15.5789C22.9745 15.5789 21.2806 13.8823 21.2806 11.7895C21.2806 9.69661 22.9745 8 25.0641 8C27.1537 8 28.8477 9.69661 28.8477 11.7895Z"
        fill="url(#paint4_linear)"></path>
    <path
        d="M51.1885 22.7373C51.0889 24.1143 50.5791 25.1982 49.6592 25.9893C48.7451 26.7803 47.5381 27.1758 46.0381 27.1758C44.3975 27.1758 43.1055 26.625 42.1621 25.5234C41.2246 24.416 40.7559 22.8984 40.7559 20.9707V20.1885C40.7559 18.958 40.9727 17.874 41.4062 16.9365C41.8398 15.999 42.458 15.2812 43.2607 14.7832C44.0693 14.2793 45.0068 14.0273 46.0732 14.0273C47.5498 14.0273 48.7393 14.4229 49.6416 15.2139C50.5439 16.0049 51.0654 17.1152 51.2061 18.5449H48.5693C48.5049 17.7188 48.2734 17.1211 47.875 16.752C47.4824 16.377 46.8818 16.1895 46.0732 16.1895C45.1943 16.1895 44.5352 16.5059 44.0957 17.1387C43.6621 17.7656 43.4395 18.7412 43.4277 20.0654V21.0322C43.4277 22.415 43.6357 23.4258 44.0518 24.0645C44.4736 24.7031 45.1357 25.0225 46.0381 25.0225C46.8525 25.0225 47.459 24.8379 47.8574 24.4688C48.2617 24.0938 48.4932 23.5166 48.5518 22.7373H51.1885Z"
        fill="#005082"></path>
    <path
        d="M63.4316 20.8916C63.4316 22.1514 63.209 23.2559 62.7637 24.2051C62.3184 25.1543 61.6797 25.8867 60.8477 26.4023C60.0215 26.918 59.0723 27.1758 58 27.1758C56.9395 27.1758 55.9932 26.9209 55.1611 26.4111C54.3291 25.9014 53.6846 25.1748 53.2275 24.2314C52.7705 23.2822 52.5391 22.1924 52.5332 20.9619V20.3291C52.5332 19.0693 52.7588 17.9619 53.21 17.0068C53.667 16.0459 54.3086 15.3105 55.1348 14.8008C55.9668 14.2852 56.916 14.0273 57.9824 14.0273C59.0488 14.0273 59.9951 14.2852 60.8213 14.8008C61.6533 15.3105 62.2949 16.0459 62.7461 17.0068C63.2031 17.9619 63.4316 19.0664 63.4316 20.3203V20.8916ZM60.7598 20.3115C60.7598 18.9697 60.5195 17.9502 60.0391 17.2529C59.5586 16.5557 58.873 16.207 57.9824 16.207C57.0977 16.207 56.415 16.5527 55.9346 17.2441C55.4541 17.9297 55.2109 18.9375 55.2051 20.2676V20.8916C55.2051 22.1982 55.4453 23.2119 55.9258 23.9326C56.4062 24.6533 57.0977 25.0137 58 25.0137C58.8848 25.0137 59.5645 24.668 60.0391 23.9766C60.5137 23.2793 60.7539 22.2656 60.7598 20.9355V20.3115Z"
        fill="#005082"></path>
    <path d="M75.7539 27H73.1172L67.9844 18.5801V27H65.3477V14.2031H67.9844L73.126 22.6406V14.2031H75.7539V27Z"
        fill="#005082"></path>
    <path d="M88.4629 27H85.8262L80.6934 18.5801V27H78.0566V14.2031H80.6934L85.835 22.6406V14.2031H88.4629V27Z"
        fill="#005082"></path>
    <path
        d="M98.4648 21.4541H93.4023V24.8818H99.3438V27H90.7656V14.2031H99.3262V16.3389H93.4023V19.3887H98.4648V21.4541Z"
        fill="#005082"></path>
    <path
        d="M110.937 22.7373C110.837 24.1143 110.327 25.1982 109.407 25.9893C108.493 26.7803 107.286 27.1758 105.786 27.1758C104.146 27.1758 102.854 26.625 101.91 25.5234C100.973 24.416 100.504 22.8984 100.504 20.9707V20.1885C100.504 18.958 100.721 17.874 101.154 16.9365C101.588 15.999 102.206 15.2812 103.009 14.7832C103.817 14.2793 104.755 14.0273 105.821 14.0273C107.298 14.0273 108.487 14.4229 109.39 15.2139C110.292 16.0049 110.813 17.1152 110.954 18.5449H108.317C108.253 17.7188 108.021 17.1211 107.623 16.752C107.23 16.377 106.63 16.1895 105.821 16.1895C104.942 16.1895 104.283 16.5059 103.844 17.1387C103.41 17.7656 103.188 18.7412 103.176 20.0654V21.0322C103.176 22.415 103.384 23.4258 103.8 24.0645C104.222 24.7031 104.884 25.0225 105.786 25.0225C106.601 25.0225 107.207 24.8379 107.605 24.4688C108.01 24.0938 108.241 23.5166 108.3 22.7373H110.937Z"
        fill="#005082"></path>
    <path d="M122.037 16.3389H118.117V27H115.48V16.3389H111.613V14.2031H122.037V16.3389Z" fill="#005082"></path>
    <path
        d="M131.248 21.4541H126.186V24.8818H132.127V27H123.549V14.2031H132.109V16.3389H126.186V19.3887H131.248V21.4541Z"
        fill="#005082"></path>
    <path
        d="M133.674 27V14.2031H137.611C138.736 14.2031 139.741 14.458 140.626 14.9678C141.517 15.4717 142.211 16.1924 142.709 17.1299C143.207 18.0615 143.456 19.1221 143.456 20.3115V20.9004C143.456 22.0898 143.21 23.1475 142.718 24.0732C142.231 24.999 141.543 25.7168 140.652 26.2266C139.762 26.7363 138.757 26.9941 137.638 27H133.674ZM136.311 16.3389V24.8818H137.585C138.616 24.8818 139.404 24.5449 139.949 23.8711C140.494 23.1973 140.772 22.2334 140.784 20.9795V20.3027C140.784 19.002 140.515 18.0176 139.976 17.3496C139.437 16.6758 138.648 16.3389 137.611 16.3389H136.311Z"
        fill="#005082"></path>
    <path
        d="M152.5 22.4912V27H149.863V14.2031H154.855C155.816 14.2031 156.66 14.3789 157.387 14.7305C158.119 15.082 158.682 15.583 159.074 16.2334C159.467 16.8779 159.663 17.6133 159.663 18.4395C159.663 19.6934 159.232 20.6836 158.371 21.4102C157.516 22.1309 156.329 22.4912 154.812 22.4912H152.5ZM152.5 20.3555H154.855C155.553 20.3555 156.083 20.1914 156.446 19.8633C156.815 19.5352 157 19.0664 157 18.457C157 17.8301 156.815 17.3232 156.446 16.9365C156.077 16.5498 155.567 16.3506 154.917 16.3389H152.5V20.3555Z"
        fill="#005082"></path>
    <path
        d="M167.143 24.3633H162.52L161.641 27H158.837L163.601 14.2031H166.044L170.834 27H168.03L167.143 24.3633ZM163.231 22.2275H166.431L164.822 17.4375L163.231 22.2275Z"
        fill="#005082"></path>
    <path
        d="M174.666 22.4912V27H172.029V14.2031H177.021C177.982 14.2031 178.826 14.3789 179.553 14.7305C180.285 15.082 180.848 15.583 181.24 16.2334C181.633 16.8779 181.829 17.6133 181.829 18.4395C181.829 19.6934 181.398 20.6836 180.537 21.4102C179.682 22.1309 178.495 22.4912 176.978 22.4912H174.666ZM174.666 20.3555H177.021C177.719 20.3555 178.249 20.1914 178.612 19.8633C178.981 19.5352 179.166 19.0664 179.166 18.457C179.166 17.8301 178.981 17.3232 178.612 16.9365C178.243 16.5498 177.733 16.3506 177.083 16.3389H174.666V20.3555Z"
        fill="#005082"></path>
    <path
        d="M191.348 21.4541H186.285V24.8818H192.227V27H183.648V14.2031H192.209V16.3389H186.285V19.3887H191.348V21.4541Z"
        fill="#005082"></path>
    <path
        d="M198.511 22.3154H196.41V27H193.773V14.2031H198.528C200.04 14.2031 201.206 14.54 202.026 15.2139C202.847 15.8877 203.257 16.8398 203.257 18.0703C203.257 18.9434 203.066 19.6729 202.686 20.2588C202.311 20.8389 201.739 21.3018 200.972 21.6475L203.74 26.877V27H200.91L198.511 22.3154ZM196.41 20.1797H198.537C199.199 20.1797 199.712 20.0127 200.075 19.6787C200.438 19.3389 200.62 18.873 200.62 18.2812C200.62 17.6777 200.447 17.2031 200.102 16.8574C199.762 16.5117 199.237 16.3389 198.528 16.3389H196.41V20.1797Z"
        fill="#005082"></path>
    <path
        d="M211.905 23.6426C211.905 23.1445 211.729 22.7637 211.378 22.5C211.026 22.2305 210.394 21.9492 209.479 21.6562C208.565 21.3574 207.842 21.0645 207.309 20.7773C205.855 19.9922 205.129 18.9346 205.129 17.6045C205.129 16.9131 205.322 16.2979 205.709 15.7588C206.102 15.2139 206.661 14.7891 207.388 14.4844C208.12 14.1797 208.94 14.0273 209.849 14.0273C210.763 14.0273 211.577 14.1943 212.292 14.5283C213.007 14.8564 213.561 15.3223 213.953 15.9258C214.352 16.5293 214.551 17.2148 214.551 17.9824H211.914C211.914 17.3965 211.729 16.9424 211.36 16.6201C210.991 16.292 210.473 16.1279 209.805 16.1279C209.16 16.1279 208.659 16.2656 208.302 16.541C207.944 16.8105 207.766 17.168 207.766 17.6133C207.766 18.0293 207.974 18.3779 208.39 18.6592C208.812 18.9404 209.43 19.2041 210.244 19.4502C211.744 19.9014 212.837 20.4609 213.522 21.1289C214.208 21.7969 214.551 22.6289 214.551 23.625C214.551 24.7324 214.132 25.6025 213.294 26.2354C212.456 26.8623 211.328 27.1758 209.91 27.1758C208.926 27.1758 208.029 26.9971 207.221 26.6396C206.412 26.2764 205.794 25.7812 205.366 25.1543C204.944 24.5273 204.733 23.8008 204.733 22.9746H207.379C207.379 24.3867 208.223 25.0928 209.91 25.0928C210.537 25.0928 211.026 24.9668 211.378 24.7148C211.729 24.457 211.905 24.0996 211.905 23.6426Z"
        fill="#005082"></path>
    <defs>
        <linearGradient id="paint0_linear" x1="13.8398" y1="32" x2="38.4939" y2="-15.9687"
            gradientUnits="userSpaceOnUse">
            <stop stop-color="#239092"></stop>
            <stop offset="0.624978" stop-color="#97C8C9"></stop>
        </linearGradient>
        <linearGradient id="paint1_linear" x1="13.8398" y1="32" x2="38.4939" y2="-15.9687"
            gradientUnits="userSpaceOnUse">
            <stop stop-color="#239092"></stop>
            <stop offset="0.624978" stop-color="#97C8C9"></stop>
        </linearGradient>
        <linearGradient id="paint2_linear" x1="13.8398" y1="32" x2="38.4939" y2="-15.9687"
            gradientUnits="userSpaceOnUse">
            <stop stop-color="#239092"></stop>
            <stop offset="0.624978" stop-color="#97C8C9"></stop>
        </linearGradient>
        <linearGradient id="paint3_linear" x1="13.8398" y1="32" x2="38.4939" y2="-15.9687"
            gradientUnits="userSpaceOnUse">
            <stop stop-color="#239092"></stop>
            <stop offset="0.624978" stop-color="#97C8C9"></stop>
        </linearGradient>
        <linearGradient id="paint4_linear" x1="13.8398" y1="32" x2="38.4939" y2="-15.9687"
            gradientUnits="userSpaceOnUse">
            <stop stop-color="#239092"></stop>
            <stop offset="0.624978" stop-color="#97C8C9"></stop>
        </linearGradient>
    </defs>
</svg>