<svg
   viewBox="0 0 62.465435 63.232727"
   version="1.1"
   id="svg1"
   xml:space="preserve"
   xmlns="http://www.w3.org/2000/svg"
   xmlns:svg="http://www.w3.org/2000/svg"><defs
     id="defs1" /><g
     id="layer1"
     transform="translate(-78.428804,-45.720179)"><path
       d="m 113.88297,71.749109 v 1.060917 1.060917 h -9.76839 -9.768918 l -0.138492,0.727604 c -0.0764,0.40018 -0.269928,1.620571 -0.429948,2.71198 -0.16002,1.091408 -0.347512,2.252267 -0.416512,2.579687 l -0.125574,0.595313 h 8.604124 8.60413 v -1.190625 -1.190625 h -7.10706 -7.107062 l 0.111621,-0.727605 c 0.30424,-1.982588 -0.679238,-1.785937 8.931751,-1.785937 h 8.61033 v 4.034896 4.034896 h -12.03854 c -11.289542,0 -12.038617,-0.0288 -12.036992,-0.463021 0.0016,-0.43853 0.875443,-6.624959 1.195793,-8.466667 0.14223,-0.817659 0.109049,-0.859896 -0.672311,-0.859896 -0.787737,0 -0.818212,-0.041 -0.739489,-0.992187 l 0.08217,-0.992188 12.104689,-0.06873 z"
       id="path6"
       fill="#FFF" /><path
       d="m 99.595471,84.983443 c 1.455199,0 2.645829,0.09843 2.645829,0.218592 0,0.897839 -2.572513,1.911618 -3.704162,1.459859 -0.52804,-0.2108 -1.5875,-1.18499 -1.5875,-1.459859 0,-0.12016 1.190635,-0.218592 2.645833,-0.218592 z"
       id="path5"
       fill="#FFF" /><path
       d="m 130.13728,84.983443 c 2.34474,0 2.75554,0.06139 2.62878,0.391708 -0.23213,0.604919 -1.79391,1.46183 -2.64274,1.45004 -0.41939,-0.006 -1.08659,-0.186863 -1.48311,-0.402042 -0.39653,-0.21519 -0.84719,-0.627397 -1.00149,-0.915707 -0.27138,-0.507079 -0.1898,-0.523999 2.49856,-0.523999 z"
       id="path4"
       fill="#FFF" /><path
       d="m 140.87047,71.749109 v 1.060917 c 0,0.955349 -0.0659,1.060917 -0.66146,1.060917 -0.46772,0 -0.66146,0.14351 -0.66146,0.49041 0,0.434469 0.81398,6.15498 1.20096,8.439278 l 0.14573,0.859896 H 128.71152 116.5288 v -3.953248 c 0,-2.174217 0.0893,-4.004848 0.19844,-4.067968 0.10914,-0.0631 0.87832,-0.05556 1.70946,0.01654 l 1.51102,0.131258 0.0765,2.150773 0.0765,2.150774 h 8.40052 8.4 l 5.2e-4,-0.610816 c 4e-5,-0.33593 -0.13812,-1.734905 -0.30696,-3.108854 l -0.30695,-2.498039 h -9.89552 -9.89552 l 0.0822,-0.992187 0.0822,-0.992188 12.10468,-0.06873 z"
       id="path3"
       fill="#FFF" /><path
       d="m 109.77625,45.724341 c -2.34343,0.0271 -4.70709,0.185704 -5.94745,0.462504 -8.384472,1.871078 -15.470506,6.573182 -19.952783,13.240535 -3.681001,5.475465 -5.447212,11.21285 -5.447212,17.691944 0,8.737091 2.87344,15.911132 8.856823,22.113895 5.274193,5.467581 11.281088,8.432421 19.585882,9.667111 0.43657,0.0649 2.28204,0.0705 4.10104,0.0124 8.67357,-0.27684 16.25803,-3.72537 22.22862,-10.106875 1.1862,-1.267848 2.34331,-2.620902 2.57142,-3.007051 1.96739,-2.914655 2.20274,-3.400717 2.82463,-4.827091 l 0.92036,-2.019515 h -4.72167 -4.72116 l -0.50902,0.859896 c -1.57455,2.658607 -5.20896,6.088345 -8.28011,7.813993 -2.03226,1.141909 -5.79069,2.346192 -8.46098,2.710953 -3.88234,0.53031 -8.6695,-0.19308 -12.36256,-1.867593 -6.568886,-2.978477 -11.69746,-9.341849 -13.18472,-16.358692 -0.485978,-2.292707 -0.484287,-7.190069 0.0036,-9.509497 3.314267,-15.755474 20.86061,-23.361999 34.87901,-15.120007 2.4162,1.420589 6.33553,5.337417 7.59798,7.593335 0.50933,0.910129 1.1324,2.011466 1.38493,2.447396 l 0.4594,0.792716 h 4.36925 c 2.62463,0 4.36975,-0.101725 4.36975,-0.254765 0,-0.140129 -0.24387,-0.884276 -0.54156,-1.653645 -4.1525,-10.7323 -12.64255,-17.8745 -24.19698,-20.355347 -1.15987,-0.24904 -3.48309,-0.353698 -5.82651,-0.326595 z"
       id="path2"
       fill="#FFF" /></g></svg>
