<svg xmlns="http://www.w3.org/2000/svg"  width="114" height="90"
    class="logo logo--homepage">
    <g class="logo__mark">
        <path class="logo__checkmark" style="fill: #f3d25f;"
            d="M110.9,25.5c-3.9,2.5-6.6,3.8-9.9,5.8C81.8,42.9,63.4,55.8,49,72.8l-6.8,8.4L21,47.6 c4.7,3.8,16.5,14.3,21.3,16.7l15.5-11.7C68.7,45,99.2,28.4,110.9,25.5z">
        </path>
        <path class="logo__paper-one" style="fill: #fff;"
            d="M37.2,56c1.6,1.3,3.2,2.5,4.5,3.4c3.5-16.9,0.6-35.2-8.7-51.1c15.6-0.2,31.2-0.4,46.7-0.7 c3.5,7.7,5.5,16,6,24.5c1.4-0.7,2.7-1.4,4.1-2c-0.5-8.6-2.9-18-7.7-28.9c-21.3,0-42.5,0-63.8,0C32.2,17.6,38.4,37.4,37.2,56z">
        </path>
        <path class="logo__paper-two" style="fill: #fff;"
            d="M34.3,53.7c0.4,0.4,0.9,0.7,1.3,1.1C35,39.1,29.1,22.9,17.9,9.1c-3.3,0-6.6,0-9.9,0 C22.3,22.3,31.1,38.2,34.3,53.7z">
        </path>
        <path class="logo__paper-three" style="fill: #fff;"
            d="M30.9,50.7c0.5,0.4,1,0.8,1.5,1.2c-4.2-11.7-11.5-23.2-21.9-33.2c-3.5,0-7,0-10.5,0 C13.4,28.3,23.7,39.4,30.9,50.7z">
        </path>
    </g>
</svg>